<?xml version="1.0" encoding="utf-8"?>
<!-- Generator: Adobe Illustrator 25.2.1, SVG Export Plug-In . SVG Version: 6.00 Build 0)  -->
<svg version="1.1" id="Layer_1" xmlns="http://www.w3.org/2000/svg" xmlns:xlink="http://www.w3.org/1999/xlink" x="0px" y="0px"
	 width="109px" height="17.8px" viewBox="0 0 109 17.8" style="enable-background:new 0 0 109 17.8;" xml:space="preserve">
<style type="text/css">
	.st0{fill:#FFFFFF;}
</style>
<g>
	<path class="st0" d="M11.9,17.2H7l1-6.3L4.2,0.4h5.3l1.5,6.3l3.4-6.3H20l-7,10.6L11.9,17.2z"/>
	<path class="st0" d="M28.1,10l-0.4,2.7c-0.2,1.5-0.9,2.7-2.1,3.5c-1.1,0.8-2.6,1.2-4.3,1.2c-1.7,0-3-0.4-4-1.3s-1.3-2.1-1-3.7
		l0.4-2.7C17,8.2,17.7,7,18.8,6.2C20,5.4,21.4,5,23.1,5c1.7,0,3.1,0.4,4,1.3C28,7.3,28.4,8.5,28.1,10z M23.8,12.2l0.3-2
		c0.1-0.6,0-1-0.3-1.4c-0.3-0.3-0.7-0.5-1.2-0.5c-0.5,0-1,0.2-1.3,0.5c-0.4,0.3-0.6,0.8-0.7,1.4l-0.3,2c-0.1,0.6,0,1,0.2,1.4
		c0.3,0.3,0.6,0.5,1.2,0.5c0.5,0,1-0.2,1.3-0.5C23.5,13.3,23.7,12.8,23.8,12.2z"/>
	<path class="st0" d="M39.6,17.2h-4.1l0.1-0.9l-1,0.6c-0.7,0.4-1.4,0.5-2.2,0.5c-1.3,0-2.2-0.4-2.8-1.2s-0.8-1.8-0.6-3.1l1.3-8h4.2
		l-1.2,7.6c-0.1,0.3,0,0.6,0.1,0.8c0.2,0.2,0.4,0.3,0.7,0.3c0.3,0,0.6-0.1,1-0.3l1.1-0.6l1.2-7.7h4.1L39.6,17.2z"/>
	<path class="st0" d="M47.5,17.2h-6.3L44,0.4h6.2c2.3,0,4.1,0.6,5.3,1.9c1.2,1.2,1.7,3.1,1.2,5.6l-0.4,2.3c-0.2,1.1-0.5,2-0.9,2.8
		c-0.4,0.8-0.9,1.5-1.4,2c-0.6,0.5-1.2,1-1.9,1.3c-0.7,0.3-1.4,0.6-2.2,0.7C49.2,17.2,48.4,17.2,47.5,17.2z M51.7,9.9L52,7.7
		c0.2-1.1,0.1-1.9-0.4-2.5c-0.4-0.6-1.1-0.8-2.1-0.8H48l-1.5,8.8h1.5C50.1,13.2,51.3,12.1,51.7,9.9z"/>
	<path class="st0" d="M61.2,17.2h-4.1L59,5.2h4.1l-0.2,1.3l0.5-0.4c0.7-0.7,1.6-1,2.7-1h0.9l-0.6,4h-0.9c-0.9,0-1.6,0.2-2.2,0.6
		l-0.9,0.5L61.2,17.2z"/>
	<path class="st0" d="M78.9,10l-0.4,2.7c-0.2,1.5-0.9,2.7-2.1,3.5s-2.6,1.2-4.3,1.2s-3-0.4-4-1.3s-1.3-2.1-1-3.7l0.4-2.7
		c0.2-1.5,0.9-2.7,2.1-3.5C70.7,5.4,72.2,5,73.9,5c1.7,0,3.1,0.4,4,1.3C78.8,7.3,79.1,8.5,78.9,10z M74.6,12.2l0.3-2
		c0.1-0.6,0-1-0.3-1.4c-0.3-0.3-0.7-0.5-1.2-0.5s-1,0.2-1.3,0.5c-0.4,0.3-0.6,0.8-0.7,1.4l-0.3,2c-0.1,0.6,0,1,0.2,1.4
		c0.3,0.3,0.6,0.5,1.2,0.5s1-0.2,1.3-0.5C74.2,13.3,74.4,12.8,74.6,12.2z"/>
	<path class="st0" d="M90.1,17.2h-4.2l1.2-7.6c0-0.3,0-0.6-0.1-0.8c-0.1-0.2-0.4-0.3-0.7-0.3s-0.6,0.1-1,0.3l-1.1,0.6L83,17.2h-4.1
		l1.9-12.1h4.1l-0.1,0.9l1-0.5C86.4,5.2,87.1,5,88,5c1.3,0,2.2,0.4,2.8,1.2c0.6,0.8,0.8,1.8,0.6,3.1L90.1,17.2z"/>
	<path class="st0" d="M99.8,13.1h4c-0.2,1.4-0.9,2.5-2,3.3c-1.1,0.7-2.5,1.1-4.3,1.1c-1.6,0-2.8-0.4-3.8-1.3
		c-0.9-0.9-1.3-2.1-1.1-3.7l0.4-2.7c0.2-1.5,0.9-2.7,2.1-3.5C96.4,5.4,97.8,5,99.5,5c1.5,0,2.8,0.4,3.6,1.1c0.9,0.7,1.3,1.6,1.3,2.6
		c0,1.3-0.4,2.3-1.3,2.9s-2,0.9-3.5,0.9h-3.2l0,0.1c-0.1,0.5,0,0.9,0.2,1.2c0.2,0.3,0.6,0.5,1.2,0.5C99,14.3,99.6,13.9,99.8,13.1z
		 M96.9,10.4h2.2c0.9,0,1.4-0.4,1.4-1.2c0-0.3-0.1-0.6-0.4-0.8c-0.2-0.2-0.6-0.3-1.1-0.3c-0.6,0-1,0.2-1.4,0.5
		C97.3,9,97,9.4,96.9,10.1L96.9,10.4z"/>
</g>
</svg>
