<?xml version="1.0" encoding="utf-8"?>
<!-- Generator: Adobe Illustrator 25.2.1, SVG Export Plug-In . SVG Version: 6.00 Build 0)  -->
<svg version="1.1" id="Layer_1" xmlns="http://www.w3.org/2000/svg" xmlns:xlink="http://www.w3.org/1999/xlink" x="0px" y="0px"
	 viewBox="0 0 38.6 7.6" style="enable-background:new 0 0 38.6 7.6;" xml:space="preserve">
<style type="text/css">
	.st0{<fill: id="#1a1a1a"></fill:>;}
</style>
<g>
	<path class="st0" d="M3.5,6.9H1.7l0.4-2.3L0.7,0.7h2L3.2,3l1.3-2.3h2L3.9,4.6L3.5,6.9z"/>
	<path class="st0" d="M9.5,4.2l-0.2,1C9.2,5.8,9,6.2,8.6,6.5S7.6,7,7,7C6.3,7,5.9,6.8,5.5,6.5S5.1,5.7,5.2,5.1l0.2-1
		c0.1-0.6,0.3-1,0.8-1.3S7,2.4,7.7,2.4c0.6,0,1.1,0.2,1.5,0.5C9.5,3.2,9.6,3.7,9.5,4.2z M7.9,5.1L8,4.3c0-0.2,0-0.4-0.1-0.5
		C7.8,3.7,7.7,3.6,7.5,3.6S7.1,3.7,7,3.8C6.9,3.9,6.8,4.1,6.7,4.3L6.6,5.1c0,0.2,0,0.4,0.1,0.5s0.2,0.2,0.4,0.2
		c0.2,0,0.4-0.1,0.5-0.2C7.8,5.4,7.9,5.3,7.9,5.1z"/>
	<path class="st0" d="M13.7,6.9h-1.5l0.1-0.3l-0.4,0.2C11.6,6.9,11.4,7,11.1,7c-0.5,0-0.8-0.1-1-0.4C9.8,6.2,9.7,5.9,9.8,5.4
		l0.5-2.9h1.5l-0.4,2.8c0,0.1,0,0.2,0.1,0.3s0.1,0.1,0.2,0.1s0.2,0,0.4-0.1l0.4-0.2l0.5-2.8h1.5L13.7,6.9z"/>
	<path class="st0" d="M16.6,6.9h-2.3l1-6.2h2.3c0.8,0,1.5,0.2,2,0.7c0.5,0.5,0.6,1.1,0.5,2l-0.1,0.9c-0.1,0.4-0.2,0.7-0.3,1
		c-0.2,0.3-0.3,0.5-0.5,0.7c-0.2,0.2-0.4,0.4-0.7,0.5c-0.3,0.1-0.5,0.2-0.8,0.3C17.3,6.9,17,6.9,16.6,6.9z M18.2,4.2l0.1-0.8
		c0.1-0.4,0-0.7-0.1-0.9c-0.2-0.2-0.4-0.3-0.8-0.3h-0.6l-0.5,3.2h0.6C17.6,5.4,18,5,18.2,4.2z"/>
	<path class="st0" d="M21.7,6.9h-1.5l0.7-4.4h1.5l-0.1,0.5l0.2-0.2c0.3-0.3,0.6-0.4,1-0.4h0.3l-0.2,1.5h-0.3c-0.3,0-0.6,0.1-0.8,0.2
		l-0.3,0.2L21.7,6.9z"/>
	<path class="st0" d="M28.2,4.2l-0.2,1c-0.1,0.6-0.3,1-0.8,1.3S26.3,7,25.7,7c-0.6,0-1.1-0.2-1.5-0.5s-0.5-0.8-0.4-1.4l0.2-1
		c0.1-0.6,0.3-1,0.8-1.3s0.9-0.5,1.6-0.5c0.6,0,1.1,0.2,1.5,0.5C28.2,3.2,28.3,3.7,28.2,4.2z M26.6,5.1l0.1-0.7c0-0.2,0-0.4-0.1-0.5
		c-0.1-0.1-0.2-0.2-0.4-0.2s-0.4,0.1-0.5,0.2c-0.1,0.1-0.2,0.3-0.3,0.5l-0.1,0.7c0,0.2,0,0.4,0.1,0.5s0.2,0.2,0.4,0.2
		c0.2,0,0.4-0.1,0.5-0.2C26.5,5.4,26.6,5.3,26.6,5.1z"/>
	<path class="st0" d="M32.3,6.9h-1.5l0.4-2.8c0-0.1,0-0.2,0-0.3c0-0.1-0.1-0.1-0.2-0.1c-0.1,0-0.2,0-0.4,0.1L30.2,4l-0.5,2.9h-1.5
		l0.7-4.4h1.5l-0.1,0.3l0.4-0.2c0.2-0.1,0.5-0.2,0.8-0.2c0.5,0,0.8,0.1,1,0.4c0.2,0.3,0.3,0.7,0.2,1.1L32.3,6.9z"/>
	<path class="st0" d="M35.9,5.4h1.5c-0.1,0.5-0.3,0.9-0.7,1.2C36.2,6.9,35.7,7,35.1,7c-0.6,0-1-0.2-1.4-0.5
		c-0.3-0.3-0.5-0.8-0.4-1.4l0.2-1c0.1-0.6,0.3-1,0.8-1.3c0.4-0.3,1-0.5,1.6-0.5c0.6,0,1,0.1,1.3,0.4c0.3,0.3,0.5,0.6,0.5,1
		c0,0.5-0.2,0.8-0.5,1.1c-0.3,0.2-0.8,0.3-1.3,0.3h-1.2l0,0.1c0,0.2,0,0.3,0.1,0.5c0.1,0.1,0.2,0.2,0.4,0.2
		C35.6,5.8,35.9,5.7,35.9,5.4z M34.8,4.4h0.8c0.3,0,0.5-0.1,0.5-0.4c0-0.1,0-0.2-0.1-0.3s-0.2-0.1-0.4-0.1c-0.2,0-0.4,0.1-0.5,0.2
		C35,3.9,34.9,4,34.9,4.3L34.8,4.4z"/>
</g>
</svg>
